HIERARCHY
ROOT hips
{
  OFFSET 0 10.6860622 2.3727825e-15
  CHANNELS 6 Xposition Yposition Zposition Yrotation Xrotation Zrotation
  JOINT leftUpperLeg
  {
    OFFSET 0.6642549969 -0.9402397400000004 0
    CHANNELS 3 Yrotation Xrotation Zrotation
    JOINT leftLowerLeg
    {
      OFFSET 0 -3.997221335632195 0
      CHANNELS 3 Yrotation Xrotation Zrotation
      JOINT leftFoot
      {
        OFFSET -0.13777839790000004 -4.6145792000000005 -0.22186036399999998
        CHANNELS 3 Yrotation Xrotation Zrotation
        JOINT leftToes
        {
          OFFSET -0.03777410834999995 -0.9130806927000008 0.85230013
          CHANNELS 3 Yrotation Xrotation Zrotation
          End Site
          {
            OFFSET -0.03777410834999995 -0.9130806927000008 0.85230013
          }
        }
      }
    }
  }
  JOINT rightUpperLeg
  {
    OFFSET -0.6642778626 -0.9402397400000004 0
    CHANNELS 3 Yrotation Xrotation Zrotation
    JOINT rightLowerLeg
    {
      OFFSET 0 -3.997221452859387 0
      CHANNELS 3 Yrotation Xrotation Zrotation
      JOINT rightFoot
      {
        OFFSET 0.1377926176 -4.6145792000000005 -0.22185782299999995
        CHANNELS 3 Yrotation Xrotation Zrotation
        JOINT rightToes
        {
          OFFSET 0.037780746850000047 -0.9130806927000008 0.85230167
          CHANNELS 3 Yrotation Xrotation Zrotation
          End Site
          {
            OFFSET 0.037780746850000047 -0.9130806927000008 0.85230167
          }
        }
      }
    }
  }
  JOINT spine
  {
    OFFSET 0 0.13988381660000015 0
    CHANNELS 3 Yrotation Xrotation Zrotation
    JOINT chest
    {
      OFFSET 0 0.6191039003973773 0
      CHANNELS 3 Yrotation Xrotation Zrotation
      JOINT upperChest
      {
        OFFSET 0 0.9855186130586943 0
        CHANNELS 3 Yrotation Xrotation Zrotation
        JOINT leftShoulder
        {
          OFFSET 0.1807663869 1.5087829790000005 0
          CHANNELS 3 Yrotation Xrotation Zrotation
          JOINT leftUpperArm
          {
            OFFSET 0.5985063006419806 0 0
            CHANNELS 3 Yrotation Xrotation Zrotation
            JOINT leftLowerArm
            {
              OFFSET 2.2993332369501065 0 0
              CHANNELS 3 Yrotation Xrotation Zrotation
              JOINT leftHand
              {
                OFFSET 2.395047042602395 0 0
                CHANNELS 3 Yrotation Xrotation Zrotation
                JOINT leftIndexProximal
                {
                  OFFSET 0.5766295810000004 0.04556643899499946 0.17265095988184
                  CHANNELS 3 Yrotation Xrotation Zrotation
                  JOINT leftIndexIntermediate
                  {
                    OFFSET 0.2957229000000008 -0.019352197700001517 -0.007932640616999987
                    CHANNELS 3 Yrotation Xrotation Zrotation
                    JOINT leftIndexDistal
                    {
                      OFFSET 0.19008243099999922 -0.012484908149998475 -0.002786250786000012
                      CHANNELS 3 Yrotation Xrotation Zrotation
                      End Site
                      {
                        OFFSET 0.19008243099999922 -0.012484908149998475 -0.002786250786000012
                      }
                    }
                  }
                }
                JOINT leftMiddleProximal
                {
                  OFFSET 0.5834975091000001 0.0524350405149987 0.02204081888183999
                  CHANNELS 3 Yrotation Xrotation Zrotation
                  JOINT leftMiddleIntermediate
                  {
                    OFFSET 0.33880573540000003 -0.019871473270000717 -0.00000971183179999946
                    CHANNELS 3 Yrotation Xrotation Zrotation
                    JOINT leftMiddleDistal
                    {
                      OFFSET 0.20676022730000088 -0.012221336379999448 0.0001471936708000235
                      CHANNELS 3 Yrotation Xrotation Zrotation
                      End Site
                      {
                        OFFSET 0.20676022730000088 -0.012221336379999448 0.0001471936708000235
                      }
                    }
                  }
                }
                JOINT leftLittleProximal
                {
                  OFFSET 0.5344154683999995 -0.012880921405001189 -0.24414037221816004
                  CHANNELS 3 Yrotation Xrotation Zrotation
                  JOINT leftLittleIntermediate
                  {
                    OFFSET 0.21758961730000093 -0.011650919939999227 0.011893592810000034
                    CHANNELS 3 Yrotation Xrotation Zrotation
                    JOINT leftLittleDistal
                    {
                      OFFSET 0.1475273964999999 -0.008152365682999818 0.006001092492999946
                      CHANNELS 3 Yrotation Xrotation Zrotation
                      End Site
                      {
                        OFFSET 0.1475273964999999 -0.008152365682999818 0.006001092492999946
                      }
                    }
                  }
                }
                JOINT leftRingProximal
                {
                  OFFSET 0.5799399463000003 0.026911854694997794 -0.12150566991816003
                  CHANNELS 3 Yrotation Xrotation Zrotation
                  JOINT leftRingIntermediate
                  {
                    OFFSET 0.26167887460000006 -0.013480186499999602 0.010996293000000053
                    CHANNELS 3 Yrotation Xrotation Zrotation
                    JOINT leftRingDistal
                    {
                      OFFSET 0.17667108799999987 -0.008990287899999228 0.0055541023999999065
                      CHANNELS 3 Yrotation Xrotation Zrotation
                      End Site
                      {
                        OFFSET 0.17667108799999987 -0.008990287899999228 0.0055541023999999065
                      }
                    }
                  }
                }
                JOINT leftThumbProximal
                {
                  OFFSET 0.11018806699999972 -0.09448718900500053 0.17047963138184
                  CHANNELS 3 Yrotation Xrotation Zrotation
                  JOINT leftThumbIntermediate
                  {
                    OFFSET 0.31062601459999983 -0.08126270900000132 0.15443142000000007
                    CHANNELS 3 Yrotation Xrotation Zrotation
                    JOINT leftThumbDistal
                    {
                      OFFSET 0.21627175790000086 -0.08833193599999878 0.018771167799999988
                      CHANNELS 3 Yrotation Xrotation Zrotation
                      End Site
                      {
                        OFFSET 0.21627175790000086 -0.08833193599999878 0.018771167799999988
                      }
                    }
                  }
                }
              }
            }
          }
        }
        JOINT neck
        {
          OFFSET 0 1.5463305265074576 0
          CHANNELS 3 Yrotation Xrotation Zrotation
          JOINT head
          {
            OFFSET 0 0.8456443600000344 0
            CHANNELS 3 Yrotation Xrotation Zrotation
            JOINT leftEye
            {
              OFFSET 0.30408573140000006 0.5104519199999995 0.1276382305
              CHANNELS 3 Yrotation Xrotation Zrotation
              End Site
              {
                OFFSET 0.30408573140000006 0.5104519199999995 0.1276382305
              }
            }
            JOINT rightEye
            {
              OFFSET -0.30409491089999996 0.5104519199999995 0.1276379445
              CHANNELS 3 Yrotation Xrotation Zrotation
              End Site
              {
                OFFSET -0.30409491089999996 0.5104519199999995 0.1276379445
              }
            }
            JOINT jaw
            {
              OFFSET -3.155239131000001e-7 -0.11984121820000082 0.60178107
              CHANNELS 3 Yrotation Xrotation Zrotation
              End Site
              {
                OFFSET -3.155239131000001e-7 -0.11984121820000082 0.60178107
              }
            }
          }
        }
        JOINT rightShoulder
        {
          OFFSET -0.1807303465 1.5087829790000005 0
          CHANNELS 3 Yrotation Xrotation Zrotation
          JOINT rightUpperArm
          {
            OFFSET -0.5985063796536958 0 0
            CHANNELS 3 Yrotation Xrotation Zrotation
            JOINT rightLowerArm
            {
              OFFSET -2.2993322059002854 0 0
              CHANNELS 3 Yrotation Xrotation Zrotation
              JOINT rightHand
              {
                OFFSET -2.395045314457259 0 0
                CHANNELS 3 Yrotation Xrotation Zrotation
                JOINT rightIndexProximal
                {
                  OFFSET -0.5764487688300002 0.0441371204405987 0.17361932004999997
                  CHANNELS 3 Yrotation Xrotation Zrotation
                  JOINT rightIndexIntermediate
                  {
                    OFFSET -0.29573011380000047 -0.01934826376999843 -0.007698921482999974
                    CHANNELS 3 Yrotation Xrotation Zrotation
                    JOINT rightIndexDistal
                    {
                      OFFSET -0.19008373999999884 -0.012503266380000655 -0.0026365778999999897
                      CHANNELS 3 Yrotation Xrotation Zrotation
                      End Site
                      {
                        OFFSET -0.19008373999999884 -0.012503266380000655 -0.0026365778999999897
                      }
                    }
                  }
                }
                JOINT rightMiddleProximal
                {
                  OFFSET -0.5834852037300005 0.05211639405060153 0.02307162440000001
                  CHANNELS 3 Yrotation Xrotation Zrotation
                  JOINT rightMiddleIntermediate
                  {
                    OFFSET -0.33880114510000003 -0.019952774050000954 0.0002455003561999819
                    CHANNELS 3 Yrotation Xrotation Zrotation
                    JOINT rightMiddleDistal
                    {
                      OFFSET -0.20675694929999955 -0.012273788999999091 0.00030209124000002766
                      CHANNELS 3 Yrotation Xrotation Zrotation
                      End Site
                      {
                        OFFSET -0.20675694929999955 -0.012273788999999091 0.00030209124000002766
                      }
                    }
                  }
                }
                JOINT rightLittleProximal
                {
                  OFFSET -0.5346811737299992 -0.011214256288399227 -0.24363941305000003
                  CHANNELS 3 Yrotation Xrotation Zrotation
                  JOINT rightLittleIntermediate
                  {
                    OFFSET -0.21757715980000092 -0.011771559690000988 0.01201554387
                    CHANNELS 3 Yrotation Xrotation Zrotation
                    JOINT rightLittleDistal
                    {
                      OFFSET -0.1475201849000004 -0.00822055339600003 0.006082065407000015
                      CHANNELS 3 Yrotation Xrotation Zrotation
                      End Site
                      {
                        OFFSET -0.1475201849000004 -0.00822055339600003 0.006082065407000015
                      }
                    }
                  }
                }
                JOINT rightRingProximal
                {
                  OFFSET -0.5800810755299999 0.027657985680600072 -0.12066365025000003
                  CHANNELS 3 Yrotation Xrotation Zrotation
                  JOINT rightRingIntermediate
                  {
                    OFFSET -0.26166445029999974 -0.013623118409999302 0.011164098990000045
                    CHANNELS 3 Yrotation Xrotation Zrotation
                    JOINT rightRingDistal
                    {
                      OFFSET -0.17666387530000027 -0.009072900100000503 0.005668185599999959
                      CHANNELS 3 Yrotation Xrotation Zrotation
                      End Site
                      {
                        OFFSET -0.17666387530000027 -0.009072900100000503 0.005668185599999959
                      }
                    }
                  }
                }
                JOINT rightThumbProximal
                {
                  OFFSET -0.10997596379000074 -0.09577489355940072 0.16989765924999997
                  CHANNELS 3 Yrotation Xrotation Zrotation
                  JOINT rightThumbIntermediate
                  {
                    OFFSET -0.31036620999999986 -0.08229339117999834 0.15440884469999996
                    CHANNELS 3 Yrotation Xrotation Zrotation
                    JOINT rightThumbDistal
                    {
                      OFFSET -0.21631306399999906 -0.08825326400000111 0.018656797720000014
                      CHANNELS 3 Yrotation Xrotation Zrotation
                      End Site
                      {
                        OFFSET -0.21631306399999906 -0.08825326400000111 0.018656797720000014
                      }
                    }
                  }
                }
              }
            }
          }
        }
      }
    }
  }
}
MOTION
Frames: 8
Frame Time: 0.03333333333333333
0 11.682712981546562 0 0 0 0 0 0 -5.826343164929014 -0.3712483961610101 -3.6333298826370974 5.838118207697276 0 0 0 0 0 0 0 0 5.826343164929014 0.3712483961610101 -3.6333298826370974 -5.838118207697276 0 0 0 0 0 0 0 -4.610651315171937 0 0 3.0831277533083026 0 0 0 0 0 1.5275236235667615 0 0 0 0 0 0 0 0 0 0 0 0 0 0 0 0 0 0 0 0 0 0 0 0 0 0 0 0 0 0 0 0 0 0 0 0 0 0 0 0 0 0 0 0 0 0 0 0 0 0 0 0 0 0 0 0 1.5275236235667615 0 0 0 0 0 0 0 0 0 0 0 0 0 0 1.5275236235667615 0 0 0 0 0 0 0 0 0 0 0 0 0 0 0 0 0 0 0 0 0 0 0 0 0 0 0 0 0 0 0 0 0 0 0 0 0 0 0 0 0 0 0 0 0 0 0 0 0 0 0 0 0 0 0
0 -10.07322438200052 9.662068625349045 180 -85.99556960093058 180 101.19363259967943 -59.14771922605686 -74.80360516992482 154.22699909189504 77.80092796091039 124.60143727197008 -15.391186156884201 18.479977618127467 6.937517103097551 0 0 0 -115.62491109258507 -59.94026067420605 86.68228351146088 -179.56884321053752 71.77565130131799 -156.44347438237304 15.409877603458508 18.477116830098613 -6.956512552026801 0 0 0 0 -11.954360585232326 0 -0.4643770925134779 13.639692142691485 -0.12372673868664268 0 0 0 -5.018747526701948 -14.801557187565447 -6.655412136742635 -0.37584977557151394 -4.719558349096019 -74.42935410936003 -39.570069675486906 -0.058913280128615485 6.001895267319408 15.576972244228235 -2.2607418469614915 -18.626692492130775 0 0 0 0 0 0 0 0 0 0 0 0 0 0 0 0 0 0 0 0 0 0 0 0 0 0 0 0 0 0 0 0 0 0 0 0 0 0 0 0 0 0 0 0 0 0 27.525432100631935 0 0 4.99720788312721 0 0 0 0 0 0 0 0 0 0 -0.8017028953171629 -7.490554694696047 -0.2475877859507859 1.002805361143084 -3.2745368155984 83.78574690373708 60.19956118277488 -0.06669409090308347 3.375467403864303 -7.5280983263822945 -1.3201585466723338 14.630903163731439 0 0 0 0 0 0 0 0 0 0 0 0 0 0 0 0 0 0 0 0 0 0 0 0 0 0 0 0 0 0 0 0 0 0 0 0 0 0 0 0 0 0 0 0 0
0 -10.07322438200052 9.662068625349045 180 -85.99556960093058 180 101.99883263431592 -59.252852209083365 -75.79289452838086 156.93077411868722 77.42269972403773 127.58912122711101 -15.391186156884201 18.479977618127467 6.937517103097551 0 0 0 -115.64428318321337 -59.938978937474516 87.0199530810067 179.53501279670851 71.0727184541643 -157.32688816737783 15.409877603458508 18.477116830098613 -6.956512552026801 0 0 0 0 -10.738447263303033 0 -0.46224769456558235 12.533471478486833 -0.11443830818790267 0 0 0 -4.573880674127209 -14.354363368086393 -5.869172609426314 -0.3817688121537828 -4.452498602570851 -75.27336296707524 -40.20109733646785 0.015572776470984633 5.694246269944757 15.37152051573839 -2.1824267258997017 -18.54315606184295 0 0 0 0 0 0 0 0 0 0 0 0 0 0 0 0 0 0 0 0 0 0 0 0 0 0 0 0 0 0 0 0 0 0 0 0 0 0 0 0 0 0 0 0 0 0 26.200321400565326 0 0 3.945835175840556 0 0 0 0 0 0 0 0 0 0 -1.1219956634992374 -6.983184804206211 -0.48531625083671753 1.0067300598161593 -2.937152993802788 84.05780563794796 61.024998484217654 -0.07465186765587212 3.5328370499084913 -7.5280983263822945 -1.320158226422211 14.630905679199042 0 0 0 0 0 0 0 0 0 0 0 0 0 0 0 0 0 0 0 0 0 0 0 0 0 0 0 0 0 0 0 0 0 0 0 0 0 0 0 0 0 0 0 0 0
0 -10.07322438200052 9.662068625349045 180 -85.99556960093058 180 102.81017700443948 -59.350866901893724 -76.78829045290104 159.46467203140062 77.0152807961474 130.40735036455217 -15.391186156884201 18.479977618127467 6.937517103097551 0 0 0 -115.66365994450855 -59.937635894159314 87.35766520323638 178.70162019899948 70.365086324634 -158.14750854162608 15.409879339090098 18.477116830098613 -6.956512552026801 0 0 0 0 -9.520322205997408 0 -0.4603075961026341 11.425589357859685 -0.10521518743902016 0 0 0 -4.122936696500377 -13.91247555288379 -5.079756391960907 -0.3916390273091955 -4.18530119058971 -76.11794178110445 -40.83291743564161 0.08670853755840106 5.385609318097041 15.166176730869172 -2.103808331755167 -18.45989244988226 0 0 0 0 0 0 0 0 0 0 0 0 0 0 0 0 0 0 0 0 0 0 0 0 0 0 0 0 0 0 0 0 0 0 0 0 0 0 0 0 0 0 0 0 0 0 24.872334326820624 0 0 2.8930369172087063 0 0 0 0 0 0 0 0 0 0 -1.444242059646974 -6.476872477197225 -0.7257757182851206 1.012257414369471 -2.5997138184695374 84.32987830300445 61.85110453716949 -0.08488663591539915 3.6902111151587853 -7.5280983263822945 -1.3201585466723338 14.630903163731439 0 0 0 0 0 0 0 0 0 0 0 0 0 0 0 0 0 0 0 0 0 0 0 0 0 0 0 0 0 0 0 0 0 0 0 0 0 0 0 0 0 0 0 0 0
0 -10.07322438200052 9.662068625349045 180 -85.99556960093058 180 103.62720410365137 -59.44166822460339 -77.78934535026063 161.83273806075522 76.58132679269447 133.06018072135953 -15.391186156884201 18.479977618127467 6.937517103097551 0 0 0 -115.68302313133368 -59.93623155170786 87.69540068378524 177.9248930272885 69.65330183812206 -158.91142843036945 15.409877603458508 18.477116830098613 -6.956512552026801 0 0 0 0 -8.300255685010082 0 -0.458553949159695 10.316246976886617 -0.0960524845742409 0 0 0 -3.666026830129512 -13.476111498375875 -4.287245729877285 -0.40546717774396024 -3.9180498788192226 -76.96296918713534 -41.46544364225638 0.1544698110641078 5.076040181658684 14.960948004963491 -2.024887631111558 -18.376916142077462 0 0 0 0 0 0 0 0 0 0 0 0 0 0 0 0 0 0 0 0 0 0 0 0 0 0 0 0 0 0 0 0 0 0 0 0 0 0 0 0 0 0 0 0 0 0 23.541829467048558 0 0 1.8389849386059822 0 0 0 0 0 0 0 0 0 0 -1.7684633900998024 -5.971681376504924 -0.9689778015862867 1.01938855270487 -2.2622383971015463 84.6019866845461 62.6778118698234 -0.09739897803144001 3.8475405562658915 -7.52809917302175 -1.3201588669224567 14.630905679199042 0 0 0 0 0 0 0 0 0 0 0 0 0 0 0 0 0 0 0 0 0 0 0 0 0 0 0 0 0 0 0 0 0 0 0 0 0 0 0 0 0 0 0 0 0
0 -10.07322438200052 9.662068625349045 180 -85.99556960093058 180 104.44960133473705 -59.52519147214588 -78.79573660197391 164.04116216985364 76.12327534126021 135.55377747198315 -15.391186156884201 18.479977618127467 6.937517103097551 0 0 0 -115.70231222420546 -59.934786368164744 88.03309326512272 177.19943772936935 68.93776966293609 -159.62404404002913 15.40987491103799 18.477115029743576 -6.956512552026801 0 0 0 0 -7.078518161305919 0 -0.45698432863134436 9.205653131154971 -0.08694444809494913 0 0 0 -3.203268728614487 -13.045468564200718 -3.491722515570404 -0.42325266817747553 -3.6508407145475523 -77.80842661179153 -42.09862411885228 0.21883784540814383 4.765598743155584 14.755833175530226 -1.9456658006642287 -18.294221096070263 0 0 0 0 0 0 0 0 0 0 0 0 0 0 0 0 0 0 0 0 0 0 0 0 0 0 0 0 0 0 0 0 0 0 0 0 0 0 0 0 0 0 0 0 0 0 22.20916076669688 0 0 0.7838589887990091 0 0 0 0 0 0 0 0 0 0 -2.0946805845537306 -5.467669826520165 -1.2149318172074723 1.0281245688173253 -1.9247406805735112 84.87409320250609 63.50502348366024 -0.11218938392270238 4.004775478153223 -7.5280983263822945 -1.3201585466723338 14.630903163731439 0 0 0 0 0 0 0 0 0 0 0 0 0 0 0 0 0 0 0 0 0 0 0 0 0 0 0 0 0 0 0 0 0 0 0 0 0 0 0 0 0 0 0 0 0
0 -10.07322438200052 9.662068625349045 180 -85.99556960093058 180 105.27687592472392 -59.60136913809526 -79.80697965856116 166.09744543109724 75.64343211390312 137.89563988065078 -15.391186156884201 18.479977618127467 6.937517103097551 0 0 0 -115.72166245050286 -59.93326626663715 88.37087842232278 176.52050542101836 68.21889386296142 -160.29009696707365 15.409877603458508 18.477116830098613 -6.956512552026801 0 0 0 0 -5.855385551954849 0 -0.45559664377854586 8.094009446446123 -0.07788541117513004 0 0 0 -2.734780756694182 -12.620745005354015 -2.6932780973903405 -0.44499484216759355 -3.3837615010544635 -78.65422755808035 -42.732371143870964 0.27979335471291517 4.454343223451409 14.550831827988894 -1.8661470033921321 -18.211806127848234 0 0 0 0 0 0 0 0 0 0 0 0 0 0 0 0 0 0 0 0 0 0 0 0 0 0 0 0 0 0 0 0 0 0 0 0 0 0 0 0 0 0 0 0 0 0 20.874677952711178 0 0 -0.2721639982612353 0 0 0 0 0 0 0 0 0 0 -2.422915316464 -4.964897313597561 -1.4636482306788041 1.0384621944047503 -1.5872408984168713 85.14626662615078 64.33262793402159 -0.12925923855213842 4.161864747733816 -7.5280983263822945 -1.3201585466723338 14.630903163731439 0 0 0 0 0 0 0 0 0 0 0 0 0 0 0 0 0 0 0 0 0 0 0 0 0 0 0 0 0 0 0 0 0 0 0 0 0 0 0 0 0 0 0 0 0
0 -10.07322438200052 9.662068625349045 180 -85.99556960093058 180 106.10861620560424 -59.670124283419135 -80.82264137474321 168.0099870428113 75.14392897961943 140.0941875253274 -15.391186156884201 18.479977618127467 6.937517103097551 0 0 0 -115.74095559074993 -59.931705338015455 88.70862951726444 175.88388593409115 67.49699746343963 -160.91380059406092 15.409877603458508 18.477116830098613 -6.956512552026801 0 0 0 0 -4.631134182654061 0 -0.4543888922671701 6.98152642950334 -0.06886985190804075 0 0 0 -2.2606917053271776 -12.202132202261913 -1.892011236794126 -0.47069213236887814 -3.1169029451005525 -79.50030574270302 -43.366647230200485 0.3373175375337495 4.142335932110336 14.345950174174188 -1.7863298459946944 -18.129683019875472 0 0 0 0 0 0 0 0 0 0 0 0 0 0 0 0 0 0 0 0 0 0 0 0 0 0 0 0 0 0 0 0 0 0 0 0 0 0 0 0 0 0 0 0 0 0 19.538734224283555 0 0 -1.3289070482040837 0 0 0 0 0 0 0 0 0 0 -2.753187192558446 -4.463421103121692 -1.7151372098915831 1.0504039866392638 -1.2497544577842725 85.41849114506836 65.16055405989117 -0.14860484584647476 4.318759575335815 -7.5280983263822945 -1.3201585466723338 14.630903163731439 0 0 0 0 0 0 0 0 0 0 0 0 0 0 0 0 0 0 0 0 0 0 0 0 0 0 0 0 0 0 0 0 0 0 0 0 0 0 0 0 0 0 0 0 0
